<svg width="1836" height="251" viewBox="0 0 1836 251" fill="none" xmlns="http://www.w3.org/2000/svg">
<path fill-rule="evenodd" clip-rule="evenodd" d="M140.167 7.01782C130.688 16.4925 130.494 33.5908 139.765 42.3011C149.08 51.0513 165.478 50.6749 174.651 41.4997C184.466 31.6885 183.956 18.991 173.316 8.35265C162.677 -2.28565 149.979 -2.79622 140.167 7.01782ZM970.706 8.78045C954.41 21.5949 965.172 51.3536 986.097 51.3536C997.184 51.3536 1011.68 37.8661 1011.68 27.55C1011.68 23.6284 1008.36 16.4697 1004.29 11.6439C995.35 1.01135 982.024 -0.12378 970.706 8.78045ZM509.93 14.9895C459.903 145.863 424.101 240.222 424.101 241.195C424.101 241.882 432.359 242.444 442.45 242.444C458.979 242.444 460.996 241.808 462.807 236.027C463.914 232.496 468.614 219.636 473.258 207.443L481.695 185.276L533.108 186.052L584.524 186.828L594.941 213.923L605.357 241.018L624.348 241.856L643.342 242.695L629.793 207.631C622.343 188.345 602.214 135.67 585.063 90.5727L553.882 8.578L533.131 8.57512C514.24 8.57227 512.161 9.14837 509.93 14.9895ZM1798.92 125.508V242.444H1817.46H1836V125.508V8.57225H1817.46H1798.92V125.508ZM860.506 47.0755V71.3183H847.522H834.536L835.4 86.2917L836.261 101.265L848.384 102.141L860.506 103.019V156.986C860.506 229.766 864.074 238.334 896.636 243.744C903.171 244.828 914.404 244.834 921.594 243.756L934.667 241.796V227.858V213.923H920.405C909.945 213.923 904.623 212.403 900.439 208.219C895.168 202.948 894.734 198.713 894.734 152.603V102.691H913.274H931.814V87.0048V71.3183H913.274H894.734V47.0755V22.8327H877.62H860.506V47.0755ZM1516.54 47.0755V71.3183H1505.13H1493.72V87.0048V102.691H1505.13H1516.54L1516.61 153.316C1516.69 211.778 1518.72 223.871 1530.22 234.176C1539.72 242.683 1561.02 246.673 1580.99 243.679L1593.55 241.796V227.858V213.923H1578.41C1552.4 213.923 1552.34 213.797 1551.25 154.4L1550.31 102.962L1569.79 102.115L1589.27 101.265L1590.14 86.2917L1591 71.3183H1570.88H1550.77V47.0755V22.8327H1533.65H1516.54V47.0755ZM512.974 101.422C503.313 127.393 495.409 149.853 495.409 151.334C495.409 152.888 511.117 154.029 532.489 154.029C557.324 154.029 569.569 153.002 569.569 150.923C569.569 145.701 534.426 54.2057 532.418 54.2057C531.385 54.2057 522.637 75.4538 512.974 101.422ZM74.0898 74.8834C65.3731 84.4065 63.8073 92.6776 68.8701 102.463C77.4927 119.139 94.4953 121.832 107.713 108.615C118.053 98.2762 118.344 88.7417 108.666 77.242C99.2502 66.0533 83.1773 64.9552 74.0898 74.8834ZM139.365 75.0659C130.614 84.3808 130.991 100.778 140.167 109.95C150.107 119.892 162.672 119.259 173.667 108.264C181.18 100.752 182.127 98.1451 180.667 89.0127C179.737 83.203 176.226 76.201 172.869 73.4573C163.924 66.1474 146.981 66.9631 139.365 75.0659ZM204.969 75.0659C190.972 89.9652 202.088 116.952 222.222 116.952C233.794 116.952 247.257 103.196 247.257 91.3713C247.257 71.093 218.956 60.1808 204.969 75.0659ZM732.152 73.0124C726.661 75.391 718.64 80.7159 714.325 84.8429L706.481 92.3496V81.834V71.3183H687.941H669.401V156.881V242.444H687.941H706.481L706.492 184.689C706.504 117.311 707.884 112.688 730.577 104.023C741.567 99.8249 745.569 99.5369 754.751 102.289C774.902 108.324 776.24 113.047 777.278 181.837L778.194 242.444H795.105H812.017L812 180.411C811.991 146.294 810.659 113.603 809.039 107.771C800.508 77.0538 762.498 59.8699 732.152 73.0124ZM1106.47 75.5165C1098.21 79.3611 1090.69 84.4835 1089.76 86.8964C1086.78 94.6883 1082.99 91.5596 1082.99 81.3006V71.3183H1065.87H1048.76V156.881V242.444H1065.87H1082.99L1083 191.819C1083.01 163.977 1084.42 136.161 1086.12 130.011C1094.71 99.1034 1128.87 90.6726 1146.91 115.015C1152.42 122.462 1152.94 127.51 1153.83 182.752L1154.79 242.444H1171.66H1188.52V186.737C1188.52 146.149 1189.58 128.503 1192.41 121.72C1202.09 98.5671 1236.84 93.653 1250.33 113.532C1254.91 120.277 1255.67 128.737 1256.47 181.837L1257.38 242.444H1274.3H1291.21L1291.19 180.411C1291.18 146.294 1289.85 113.603 1288.23 107.771C1276.85 66.8148 1221.33 55.6774 1187.88 87.6436L1180.1 95.0734L1173.84 87.116C1165.81 76.9141 1147.48 68.6003 1132.9 68.5575C1126.63 68.5375 1114.73 71.669 1106.47 75.5165ZM1379.54 72.6759C1362.24 78.2403 1343.99 94.386 1334.78 112.28C1328.72 124.068 1327.01 131.954 1326.07 152.603C1324.62 184.17 1331.51 205.734 1348.43 222.656C1364.78 239.001 1375.1 243.277 1401.69 244.725C1422.88 245.88 1426.73 245.25 1440.96 238.288C1456.47 230.699 1476.61 209.416 1476.61 200.606C1476.61 196.807 1469.3 192.96 1455.49 189.495C1450.17 188.16 1447.78 189.714 1443.18 197.515C1429.63 220.486 1394.29 223.335 1373.14 203.162C1365.36 195.741 1355.43 169.981 1358.45 165.087C1359.3 163.709 1387.05 162.585 1420.12 162.585H1480.24L1478.8 144.586C1476.26 112.964 1461.66 88.4508 1438.18 76.3836C1423.67 68.9225 1396.55 67.2056 1379.54 72.6759ZM1664.52 72.2167C1646.04 79.1558 1633.58 88.6847 1625.95 101.702C1621.76 108.855 1619.57 115.477 1620.98 116.746C1622.37 117.996 1629.28 120.457 1636.34 122.219C1647.29 124.952 1649.59 124.758 1652.03 120.879C1660.33 107.64 1666.24 102.54 1676.42 99.7992C1699.36 93.6216 1719.05 105.78 1719.05 126.121C1719.05 132.233 1716.72 133.197 1687.4 139.189C1634.73 149.953 1616.55 163.184 1614.12 192.518C1610.84 231.959 1652.15 256.082 1696.87 240.847C1704.05 238.402 1712.13 233.962 1714.82 230.981C1719.61 225.693 1719.93 225.768 1728.17 234.004C1735.62 241.457 1738.58 242.444 1753.5 242.444H1770.4V229.609C1770.4 219.151 1769.45 216.775 1765.26 216.775C1754.45 216.775 1753.28 211.519 1753.28 162.708C1753.28 136.737 1752.02 111.102 1750.49 105.74C1747.3 94.6227 1735.71 81.3605 1723.71 75.0973C1712.21 69.0908 1677.37 67.3938 1664.52 72.2167ZM968.894 156.881V242.444H986.008H1003.12V156.881V71.3183H986.008H968.894V156.881ZM1386.76 100.857C1373.08 107.186 1359.66 125.169 1359.66 137.179C1359.66 138.844 1376.16 139.612 1401.73 139.132L1443.81 138.342L1442.8 131.212C1441.26 120.397 1434.52 108.98 1426.59 103.789C1416.95 97.472 1397.22 96.0202 1386.76 100.857ZM9.69299 139.803C0.154827 147.304 -2.50927 159.747 3.09839 170.588C8.04717 180.157 12.6623 182.55 26.1823 182.55C33.2846 182.55 37.5402 180.337 43.0623 173.774C51.5965 163.632 52.067 159.73 46.1399 148.268C38.4073 133.317 22.6026 129.646 9.69299 139.803ZM77.989 137.296C71.209 141.234 64.235 157.916 66.5882 164.565C70.2791 174.992 79.7887 182.55 89.2185 182.55C102.388 182.55 107.128 180.12 111.877 170.936C118.067 158.969 117.006 151.693 107.713 142.401C98.925 133.614 87.6526 131.677 77.989 137.296ZM211.603 137.51C197.687 145.49 194.598 162.22 204.68 175.035C209.293 180.901 213.078 182.55 221.923 182.55C245.457 182.55 255.455 158.935 238.92 142.401C230.166 133.648 221.153 132.034 211.603 137.51ZM273.148 141.448C262.514 150.392 261.379 163.717 270.284 175.035C275.053 181.098 278.593 182.55 288.616 182.55C298.639 182.55 302.179 181.098 306.948 175.035C315.853 163.717 314.717 150.392 304.084 141.448C299.258 137.387 292.298 134.064 288.616 134.064C284.933 134.064 277.974 137.387 273.148 141.448ZM1688.43 164.202C1657.67 170.945 1647.75 178.731 1647.75 196.126C1647.75 205.638 1656.75 215.121 1668.4 217.873C1680.34 220.697 1700.4 214.419 1709.38 205.047C1716.06 198.071 1717.56 193.696 1718.54 178.223C1719.9 156.858 1720.56 157.163 1688.43 164.202ZM6.23596 211.59C-3.03123 222.602 -1.9217 234.757 9.24514 244.583C23.4041 257.044 45.5951 248.636 49.2775 229.415C51.8217 216.125 39.4256 202.514 24.776 202.514C16.0251 202.514 12.3656 204.306 6.23596 211.59ZM271.373 209.516C261.065 219.824 261.807 234.073 273.148 243.616C277.974 247.677 284.933 251 288.616 251C292.298 251 299.258 247.677 304.084 243.616C310.767 237.995 312.86 233.882 312.86 226.375C312.86 204.976 286.588 194.3 271.373 209.516Z" fill="black"/>
</svg>
