<svg width="684" height="206" viewBox="0 0 684 206" fill="none" xmlns="http://www.w3.org/2000/svg">
<path fill-rule="evenodd" clip-rule="evenodd" d="M305.721 100.168L305.691 200.918H316.691H327.691L327.709 143.668L327.728 86.4179L332.327 94.9179C349.959 127.502 361.263 147.902 361.691 147.906C362.19 147.911 387.204 102.099 392.124 92.1679C393.554 89.2809 394.861 86.9179 395.028 86.9179C395.194 86.9179 395.127 112.568 394.878 143.918L394.426 200.918H406.058H417.691V100.251C417.691 44.8849 417.522 -0.228132 417.315 0.00086799C417.108 0.229868 408.722 15.4929 398.68 33.9179C376.417 74.7639 374.794 77.7359 370.281 85.9179C368.31 89.4929 365.715 94.3309 364.516 96.6679C363.317 99.0049 362.013 100.918 361.619 100.918C361.224 100.918 359.668 98.5549 358.162 95.6679C355.836 91.2079 309.077 5.27888 306.603 0.917875C306.13 0.0848754 305.738 44.2409 305.721 100.168ZM53.808 9.69188C52.527 14.4919 51.046 19.7679 50.517 21.4179C49.989 23.0679 38.407 64.0179 24.778 112.418L0 200.418L11.98 200.7C18.569 200.855 24.094 200.848 24.258 200.684C24.422 200.521 25.506 196.794 26.668 192.402C27.831 188.011 29.71 180.93 30.846 176.668L32.91 168.918H56.332C75.924 168.918 79.845 169.156 80.313 170.375C80.621 171.177 82.553 178.264 84.607 186.125L88.342 200.418L100.517 200.699C107.213 200.853 112.691 200.628 112.691 200.199C112.691 199.769 109.509 188.168 105.621 174.418C101.732 160.668 97.94 147.168 97.193 144.418C96.446 141.668 93.969 132.893 91.687 124.918C89.406 116.943 86.931 108.168 86.187 105.418C81.19 86.9419 57.354 3.18688 56.81 2.19188C56.441 1.51788 55.09 4.89288 53.808 9.69188ZM162.734 5.05688C147.119 7.64488 135 18.7809 130.781 34.4179C129.369 39.6529 129.391 53.7839 130.82 59.7249C132.505 66.7289 138.746 79.6259 144.502 88.0009C147.306 92.0799 155.258 102.618 162.174 111.418C176.329 129.429 181.579 137.68 184.608 146.672C191.11 165.972 181.233 180.918 161.978 180.918C156.97 180.918 147.192 177.874 140.768 174.315C138.335 172.968 136.024 172.214 135.634 172.641C135.243 173.069 132.784 177.628 130.169 182.774C124.797 193.346 124.493 192.337 134.449 197.008C143.239 201.133 151.663 202.888 162.691 202.891C173.3 202.895 179.628 201.521 187.552 197.495C204.539 188.866 213.655 167.364 209.427 145.903C206.761 132.371 202 124.037 181.153 96.4179C170.774 82.6679 160.636 68.6049 158.623 65.1679C149.472 49.5369 151.788 34.4429 164.273 28.3339C169.051 25.9969 170.624 25.7159 176.565 26.1409C180.965 26.4559 185.437 27.5709 189.187 29.2879C192.382 30.7499 195.076 31.8279 195.173 31.6819C196.145 30.2369 204.691 13.7989 204.691 13.3749C204.691 11.9269 190.94 6.61687 183.978 5.37587C175.214 3.81387 170.645 3.74488 162.734 5.05688ZM493.691 5.28488C472.8 9.84288 459.026 29.7759 452.485 64.9179C450.654 74.7559 450.336 80.2479 450.288 102.918C450.232 129.3 450.884 137.186 454.34 151.918C459.938 175.786 470.681 192.344 485.191 199.47C490.787 202.218 491.965 202.415 502.691 202.399C513.321 202.382 514.64 202.162 520.13 199.487C543.121 188.286 555.697 154.485 555.687 103.918C555.675 45.9149 539.331 10.3309 510.257 5.00488C503.089 3.69188 500.82 3.72988 493.691 5.28488ZM241.691 103.918V200.918H252.691H263.691V103.918V6.91788H252.691H241.691V103.918ZM570.691 7.35988C570.691 7.85688 625.503 202.629 626.257 204.811C626.522 205.577 626.919 206.023 627.14 205.802C627.361 205.581 639.963 161.304 655.144 107.409C670.325 53.5139 682.945 8.85588 683.187 8.16788C683.525 7.21188 680.725 6.91788 671.269 6.91788H658.91L656.896 14.6679C655.788 18.9299 653.258 28.7179 651.274 36.4179C647.79 49.9349 644.549 62.4769 635.767 96.4179C633.491 105.218 630.585 116.918 629.309 122.418L626.991 132.418L625.951 128.418C625.38 126.218 623.069 116.768 620.817 107.418C616.824 90.8369 613.941 79.5639 602.147 34.4179C598.987 22.3179 596.19 11.1799 595.932 9.66788L595.464 6.91788H583.078C576.265 6.91788 570.691 7.11688 570.691 7.35988ZM496.191 28.3249C486.029 32.8259 478.915 47.7749 475.207 72.4179C473.44 84.1659 473.155 119.066 474.722 131.944C478.768 165.197 491.638 184.546 506.708 180.031C517.293 176.86 524.225 165.25 528.866 142.918C531.431 130.574 532.518 92.2139 530.736 76.8909C526.509 40.5239 512.646 21.0359 496.191 28.3249ZM54.266 84.6429C53.327 89.4689 50.978 99.4929 49.047 106.918C47.116 114.343 44.195 125.593 42.556 131.918C40.918 138.243 39.348 144.206 39.067 145.168C38.594 146.788 39.871 146.918 56.254 146.918H73.953L73.36 143.668C73.035 141.88 70.485 131.868 67.695 121.418C64.904 110.968 61.333 96.6519 59.759 89.6039C58.185 82.5569 56.689 76.5829 56.436 76.3289C56.182 76.0759 55.206 79.8169 54.266 84.6429Z" fill="black"/>
</svg>
