<svg width="449" height="447" viewBox="0 0 449 447" fill="none" xmlns="http://www.w3.org/2000/svg">
<path fill-rule="evenodd" clip-rule="evenodd" d="M11.3179 1.75852C3.89285 5.13052 -0.883148 13.3115 0.136852 20.9125C0.416852 23.0035 4.46885 32.5135 9.13985 42.0465C33.5209 91.7975 46.7048 139.502 50.9488 193.316C52.4278 212.077 51.6089 252.524 49.3779 270.879C43.7469 317.201 31.0299 359.671 9.25285 404.883C-0.640148 425.421 -1.33915 428.076 1.40685 434.647C4.60185 442.294 11.5159 446.879 19.8509 446.879C31.1579 446.879 34.9309 443.193 45.5549 421.767C100.523 310.91 107.295 185.444 64.5998 68.8785C56.5068 46.7825 39.8739 11.6825 35.0419 6.50252C29.1519 0.188521 19.1689 -1.80848 11.3179 1.75852ZM127.359 48.0855C119.516 50.8265 113.926 58.3345 113.881 66.1895C113.868 68.5015 116.18 75.9755 119.76 85.1895C136.365 127.926 144.161 166.721 145.521 213.379C147.069 266.453 138.135 315.914 117.747 367.148C113.365 378.16 112.922 383.122 115.815 388.793C122.345 401.593 140.604 403.612 149.46 392.513C156.478 383.718 170.951 339.883 177.735 306.879C183.99 276.448 185.319 261.928 185.332 223.879C185.341 196.299 184.98 186.571 183.528 175.379C179.498 144.31 173.835 118.968 164.868 91.8785C156.846 67.6425 151.763 56.1115 147.419 52.2945C141.823 47.3765 134.051 45.7455 127.359 48.0855ZM235.094 104.399C228.377 107.81 224.859 113.339 224.859 120.485C224.859 123.197 225.986 130.357 227.362 136.397C232.835 160.402 236.864 197.675 236.855 224.209C236.847 249.192 233.763 278.969 228.657 303.379C225.269 319.576 224.311 327.56 225.289 331.456C226.272 335.372 232.577 341.605 237.429 343.458C246.18 346.8 256.973 343.285 261.764 335.532C266.078 328.552 273.592 285.807 275.942 254.879C277.411 235.544 276.59 192.283 274.413 174.379C270.883 145.347 265.125 116.838 261.623 111.062C258.546 105.985 252.953 102.782 246.176 102.214C241.26 101.802 239.543 102.141 235.094 104.399ZM331.359 161.448C326.61 163.913 323.033 167.858 321.204 172.645C319.691 176.609 319.648 178.132 320.794 187.225C322.678 202.176 323.281 234.479 321.918 247.379C319.434 270.874 319.441 271.943 322.095 276.879C327.57 287.063 340.504 290.477 350.41 284.353C357.6 279.908 359.438 275.495 361.439 257.879C364.297 232.716 362.192 177.886 358.078 170.319C356.411 167.252 350.626 162.102 347.544 160.94C343.422 159.386 334.811 159.657 331.359 161.448ZM414.739 204.673C398.91 212.942 399.207 234.704 415.264 243.151C420.926 246.13 430.792 246.13 436.454 243.151C457.369 232.148 449.599 201.879 425.859 201.879C421.483 201.879 418.794 202.555 414.739 204.673Z" fill="black"/>
</svg>
