<svg width="1379" height="254" viewBox="0 0 1379 254" fill="none" xmlns="http://www.w3.org/2000/svg">
<path fill-rule="evenodd" clip-rule="evenodd" d="M190.911 4.01947C173.539 8.69182 151.088 20.7651 137.452 32.7691C115.824 51.8101 96.5548 89.6247 96.5548 113.026V121.432H48.2774C1.65133 121.432 0 121.601 0 126.384C0 131.153 1.65133 131.337 44.3607 131.337C68.7594 131.337 90.4842 132.013 92.6381 132.84C95.156 133.805 96.5548 137.373 96.5548 142.823C96.5548 153.024 104.891 178.776 112.07 190.762C128.301 217.85 153.049 237.971 182.548 248.058C204.31 255.502 239.659 256.026 259.955 249.21C304.977 234.091 338.749 196.509 346.961 152.383C348.483 144.212 350.105 136.135 350.566 134.432C351.199 132.094 362.925 131.337 398.521 131.337C443.986 131.337 445.637 131.163 445.637 126.384C445.637 121.603 443.986 121.432 397.907 121.432H350.179L347.515 104.518C336.427 34.0839 260.438 -14.6823 190.911 4.01947ZM188.158 18.9304C152.673 28.4261 120.664 60.5605 111.914 95.4756C110.555 100.901 108.8 108.96 108.013 113.385L106.582 121.432H216.629H326.677L325.246 113.385C320.277 85.4475 312.543 68.6845 296.341 50.7528C269.266 20.7849 227.327 8.44916 188.158 18.9304ZM647.556 48.2173C625.62 56.3735 613.984 70.9402 613.999 90.2288C614.016 114.551 625.662 124.847 664.955 135.278C692.273 142.531 699.715 145.757 706.556 153.317C712.483 159.868 712.698 175.963 706.974 184.698C698.314 197.921 674.046 203.91 652.916 198.042C641.453 194.858 627.433 182.958 625.346 174.641C624.13 169.797 622.216 168.478 616.418 168.478C608.31 168.478 607.386 171.214 611.672 182.554C623.845 214.778 678.629 225.87 711.168 202.697C726.24 191.963 732.165 167.128 723.839 149.578C718.437 138.193 703.753 129.987 672.759 121.029C645.023 113.014 638.378 109.619 632.315 100.361C623.934 87.572 634.387 68.6821 653.351 62.3433C675.002 55.1058 698.502 63.4006 706.766 81.1961C710.797 89.8747 712.859 91.7194 718.526 91.7194C727.27 91.7194 727.669 84.7493 719.732 70.6728C708.452 50.6785 671.694 39.2416 647.556 48.2173ZM790.224 47.1799C754.514 54.6774 733.356 89.6989 735.841 137.21C737.683 172.462 750.686 195.078 776.573 208.067C793.762 216.689 825.387 216.689 842.576 208.067C868.463 195.078 881.466 172.462 883.308 137.21C885.417 96.8993 870.691 65.4632 843.589 52.4167C831.329 46.5163 805.477 43.9808 790.224 47.1799ZM579.329 130.098V213.047H586.756H594.183V130.098V47.1501H586.756H579.329V130.098ZM938.314 129.95V213.047H945.702H953.087L953.748 147.003L954.407 80.9584L981.66 145.146C1008.4 208.122 1009.05 209.348 1016.51 210.078L1024.11 210.821L1052.39 144.462L1080.67 78.101L1081.33 145.574L1081.99 213.047H1089.38H1096.76V130.098V47.1501H1087.43H1078.1L1048.71 117.099C1032.54 155.57 1018.59 187.875 1017.71 188.885C1016.82 189.896 1002.59 158.697 986.089 119.555L956.083 48.3882L947.197 47.6206L938.314 46.8505V129.95ZM788.87 63.1579C769.692 69.9944 757.522 87.0322 752.659 113.848C749.196 132.956 752.649 157.618 760.809 172.021C782.044 209.511 837.105 209.511 858.34 172.021C870.491 150.568 870.78 112.162 858.966 88.9982C846.572 64.703 816.071 53.4592 788.87 63.1579ZM1339.39 79.3391V94.1955H1330.72C1323.13 94.1955 1322.06 94.9631 1322.06 100.386C1322.06 105.788 1323.14 106.576 1330.57 106.576H1339.09L1339.86 153.559C1340.59 198.074 1340.91 200.825 1346.05 205.958C1349.91 209.816 1355.44 211.705 1365.24 212.519C1378.57 213.624 1379 213.465 1379 207.481C1379 202.177 1377.58 201.073 1369.02 199.703C1361.36 198.478 1358.48 196.638 1356.64 191.797C1355.32 188.328 1354.24 167.732 1354.24 146.032V106.576H1366.62C1378.18 106.576 1379 106.162 1379 100.386C1379 94.609 1378.18 94.1955 1366.62 94.1955H1354.24V79.3391V64.4826H1346.82H1339.39V79.3391ZM1139.62 96.5354C1126.75 102.381 1115.56 117.379 1111.53 134.191C1107.96 149.073 1109.76 175.029 1115.07 185.307C1118.66 192.24 1137.08 210.467 1140.72 210.68C1141.73 210.739 1147.32 211.705 1153.12 212.829C1174.73 217.009 1198.38 207.31 1206.94 190.757C1212.2 180.583 1211.61 178.382 1203.62 178.382C1198.56 178.382 1195.81 180.083 1193.83 184.441C1189.79 193.31 1180.58 198.337 1165.66 199.825C1154.56 200.931 1151.11 200.216 1143.94 195.323C1133.91 188.487 1127.51 178.293 1125.15 165.383L1123.44 156.097H1168.29H1213.12V146.505C1213.12 106.568 1174.84 80.5449 1139.62 96.5354ZM1251.5 95.2627C1216.44 108.109 1206.23 171.028 1234.71 198.705C1246.42 210.078 1255.15 213.465 1272.88 213.507C1289.6 213.55 1301.91 208.246 1312.14 196.591C1321.89 185.486 1322.05 178.382 1312.55 178.382C1307.5 178.382 1304.75 180.083 1302.76 184.441C1298.72 193.31 1289.52 198.337 1274.59 199.825C1263.5 200.931 1260.04 200.216 1252.87 195.323C1242.56 188.294 1236.08 177.671 1234.98 166.002L1234.17 157.335L1278.45 156.657L1322.73 155.981L1321.39 141.181C1319.76 123.153 1310.82 106.742 1298.5 99.1228C1287.24 92.1626 1264.95 90.3328 1251.5 95.2627ZM1149.46 106.737C1139.99 109.607 1129.23 122.849 1126.49 134.989L1124.52 143.717H1161.33H1198.15L1196.72 135.67C1192.83 113.717 1170.84 100.257 1149.46 106.737ZM1261.51 105.798C1248.34 109.436 1235.41 124.998 1235.41 137.2V143.717H1271.5H1307.6L1305.97 135.67C1301.83 115.136 1280.22 100.623 1261.51 105.798ZM120.235 133.553C117.737 137.594 123.783 162.035 131.196 177.879C140.287 197.306 161.945 219.267 181.134 228.515C201.096 238.137 225.869 241.972 245.029 238.409C275.897 232.667 302.142 215.936 318.175 191.775C328.771 175.809 336.704 154.01 336.704 140.852V131.337H229.154C168.547 131.337 121.008 132.305 120.235 133.553Z" fill="black"/>
</svg>
