<svg width="812" height="203" viewBox="0 0 812 203" fill="none" xmlns="http://www.w3.org/2000/svg">
<path fill-rule="evenodd" clip-rule="evenodd" d="M26.2053 33.2337C25.1329 34.4124 25.2039 36.2207 26.3306 37.3475L165.578 176.595C166.704 177.721 168.513 177.792 169.691 176.72C190.109 158.141 202.925 131.354 202.925 101.573C202.925 45.4761 157.449 0 101.352 0C71.5713 0 44.7843 12.8161 26.2053 33.2337ZM8.8016 59.6605C8.28703 60.795 8.54649 62.1253 9.42732 63.0061L139.919 193.498C140.8 194.379 142.13 194.638 143.265 194.124C146.279 192.756 149.215 191.246 152.063 189.601C153.757 188.624 154.016 186.314 152.634 184.931L17.9937 50.2916C16.6113 48.9092 14.3012 49.1686 13.3238 50.8616C11.6792 53.7101 10.1689 56.6459 8.8016 59.6605ZM0.885082 97.0259C0.274094 96.4149 -0.0509921 95.5728 0.00652703 94.7107C0.275913 90.6728 0.781255 86.6997 1.50889 82.8047C1.94519 80.4692 4.79896 79.6588 6.47895 81.3386L121.586 196.446C123.266 198.126 122.456 200.98 120.12 201.416C116.225 202.144 112.252 202.649 108.214 202.919C107.352 202.976 106.51 202.651 105.899 202.04L0.885082 97.0259ZM7.94894 125.371C5.85174 123.273 2.46737 125.08 3.23542 127.945C12.593 162.847 40.0779 190.332 74.9799 199.69C77.8447 200.458 79.6518 197.073 77.5546 194.976L7.94894 125.371ZM409.216 55.896C416.498 55.896 422.399 49.9725 422.399 42.6655C422.399 35.3585 416.498 29.435 409.216 29.435C401.937 29.435 396.036 35.3585 396.036 42.6655C396.036 49.9725 401.937 55.896 409.216 55.896ZM296.306 171.28V29.4429H319.732V150.528H382.895V171.28H296.306ZM463.042 113.403V171.28H440.375V70.7567H462.758V87.9865L463.042 87.7963C465.317 82.402 468.986 77.8962 474.044 74.2787C479.101 70.5979 485.55 68.7575 493.392 68.7575C500.347 68.7575 506.669 70.3125 512.361 73.4221C518.051 76.4683 522.602 80.9422 526.016 86.8442C529.431 92.7462 531.138 99.9809 531.138 108.548V171.28H508.471V111.69C508.471 104.074 506.447 98.2991 502.401 94.3645C498.419 90.3665 493.076 88.3673 486.373 88.3673C482.073 88.3673 478.153 89.2559 474.613 91.0327C471.073 92.8098 468.259 95.5385 466.172 99.2193C464.085 102.9 463.042 107.628 463.042 113.403ZM668.285 169.567C673.47 171.788 679.413 172.899 686.114 172.899C691.616 172.899 696.325 172.201 700.245 170.804C704.167 169.345 707.391 167.409 709.92 164.998C712.513 162.586 714.567 159.952 716.085 157.097H716.465V171.28H738.184V102.075C738.184 97.1885 737.234 92.7146 735.338 88.6529C733.442 84.5913 730.691 81.0693 727.086 78.0866C723.546 75.1037 719.246 72.8191 714.187 71.2327C709.131 69.5825 703.438 68.7575 697.117 68.7575C688.455 68.7575 680.962 70.249 674.639 73.2316C668.378 76.151 663.48 80.0855 659.938 85.0357C656.397 89.9856 654.469 95.5704 654.152 101.789H676.062C676.314 98.8703 677.327 96.2683 679.097 93.9837C680.867 91.6992 683.27 89.9221 686.305 88.6529C689.34 87.3202 692.848 86.6538 696.833 86.6538C700.816 86.6538 704.198 87.3202 706.981 88.6529C709.825 89.9856 712.007 91.7944 713.523 94.0789C715.042 96.3635 715.801 99.0289 715.801 102.075V102.837C715.801 105.121 715.009 106.803 713.43 107.882C711.912 108.961 709.319 109.754 705.653 110.262C702.048 110.769 697.117 111.372 690.857 112.07C685.735 112.641 680.804 113.498 676.062 114.641C671.32 115.783 667.083 117.465 663.352 119.686C659.686 121.907 656.777 124.858 654.627 128.539C652.477 132.22 651.403 136.947 651.403 142.722C651.403 149.386 652.92 154.971 655.955 159.476C658.99 163.919 663.1 167.282 668.285 169.567ZM704.989 152.718C701.321 154.685 696.8 155.669 691.427 155.669C685.989 155.669 681.657 154.526 678.433 152.242C675.207 149.894 673.595 146.689 673.595 142.627C673.595 139.454 674.481 136.884 676.251 134.917C678.086 132.949 680.487 131.395 683.459 130.252C686.431 129.11 689.655 128.317 693.132 127.872C695.662 127.492 698.128 127.111 700.532 126.73C702.933 126.286 705.178 125.873 707.265 125.493C709.352 125.048 711.122 124.604 712.576 124.16C714.094 123.716 715.2 123.24 715.895 122.732V133.965C715.895 137.899 714.979 141.517 713.144 144.817C711.374 148.053 708.656 150.687 704.989 152.718ZM757.96 171.28V70.7567H779.773V87.3202H780.059C781.892 81.6086 784.768 77.2616 788.688 74.2787C792.671 71.2327 797.888 69.7096 804.338 69.7096C805.919 69.7096 807.342 69.7729 808.605 69.9C809.934 69.9633 811.041 70.0269 811.926 70.0902V90.5567C811.104 90.4298 809.648 90.2713 807.563 90.0808C805.476 89.8904 803.264 89.7952 800.923 89.7952C797.192 89.7952 793.78 90.6519 790.68 92.3654C787.582 94.0789 785.116 96.7126 783.282 100.266C781.512 103.757 780.627 108.168 780.627 113.498V171.28H757.96ZM397.836 171.28V70.7567H420.503V171.28H397.836ZM568.839 166.806C576.111 171.312 584.742 173.565 594.732 173.565C602.446 173.565 609.464 172.169 615.787 169.376C622.174 166.521 627.484 162.618 631.721 157.668C635.957 152.654 638.708 146.879 639.973 140.343H618.633C617.683 143.325 616.134 145.959 613.984 148.244C611.9 150.465 609.275 152.21 606.114 153.479C602.951 154.749 599.285 155.383 595.112 155.383C589.484 155.383 584.647 154.114 580.601 151.575C576.618 149.037 573.583 145.515 571.497 141.009C569.603 136.862 568.567 132.166 568.393 126.92H641.3V120.828C641.3 113.086 640.161 106.042 637.886 99.6953C635.61 93.2856 632.384 87.7644 628.211 83.1317C624.039 78.4355 619.013 74.8183 613.132 72.2798C607.314 69.7413 600.834 68.4721 593.689 68.4721C584.395 68.4721 576.176 70.725 569.03 75.2308C561.885 79.7366 556.29 85.9559 552.242 93.8885C548.196 101.821 546.172 110.896 546.172 121.114C546.172 131.268 548.133 140.311 552.053 148.244C555.973 156.113 561.57 162.301 568.839 166.806ZM616.546 100.266C614.459 95.951 611.488 92.6194 607.631 90.2713C603.774 87.9232 599.222 86.749 593.973 86.749C588.788 86.749 584.267 87.9232 580.41 90.2713C576.618 92.6194 573.646 95.951 571.497 100.266C569.962 103.392 568.992 106.946 568.586 110.928H619.455C619.049 106.946 618.079 103.392 616.546 100.266Z" fill="black"/>
</svg>
