<svg width="418" height="422" viewBox="0 0 418 422" fill="none" xmlns="http://www.w3.org/2000/svg">
<path d="M298.04 121.451L243.648 55.1372L228.746 30.549L240.667 0L168.393 61.098L222.785 126.667L237.687 151.255L225.765 181.804L298.04 121.451Z" fill="white"/>
<path d="M192.981 91.6468L108.04 93.137L79.726 89.4115L64.0791 61.0978L66.3143 155.725L151.255 154.235L179.569 157.961L195.216 186.274L192.981 91.6468Z" fill="white"/>
<path d="M104.314 155.726L52.902 223.53L32.7843 244.392L0 239.177L75.2549 295.804L126.667 228L146.784 207.883L179.569 213.098L104.314 155.726Z" fill="white"/>
<path d="M99.0977 265.255L119.215 347.961L122.941 376.274L98.3525 398.627L189.255 374.784L168.392 292.078L164.666 263.765L189.255 242.157L99.0977 265.255Z" fill="white"/>
<path d="M181.059 337.53L257.804 373.294L282.392 388.942L284.628 421.726L322.628 335.294L245.138 299.53L220.549 284.628L218.314 251.844L181.059 337.53Z" fill="white"/>
<path d="M288.353 318.157L364.353 280.157L391.177 270.471L418.001 289.098L374.785 205.647L298.785 243.647L271.216 253.333L244.393 234.706L288.353 318.157Z" fill="white"/>
<path d="M340.51 222.039L357.647 138.588L367.334 111.019L398.628 102.078L306.236 83.4507L289.098 166.902L279.412 194.47L248.118 203.411L340.51 222.039Z" fill="white"/>
</svg>
